<?xml version="1.0" standalone="no"?>
<!DOCTYPE svg PUBLIC "-//W3C//DTD SVG 20010904//EN"
 "http://www.w3.org/TR/2001/REC-SVG-20010904/DTD/svg10.dtd">
<svg version="1.0" xmlns="http://www.w3.org/2000/svg"
 width="280.000000pt" height="280.000000pt" viewBox="0 0 280.000000 280.000000"
 preserveAspectRatio="xMidYMid meet">
<metadata>
Created by potrace 1.11, written by Peter Selinger 2001-2013
</metadata>
<g transform="translate(0.000000,280.000000) scale(0.100000,-0.100000)"
fill="#000000" stroke="none">
<path d="M1911 2083 c-6 -10 -11 -15 -11 -11 0 4 -24 -19 -52 -51 -29 -33 -60
-59 -68 -58 -9 1 -42 -25 -74 -58 -33 -32 -65 -60 -73 -61 -8 -2 -39 -28 -69
-58 -30 -31 -59 -56 -64 -56 -6 0 -10 -6 -10 -13 0 -8 -6 -14 -14 -14 -17 0
-94 -63 -95 -78 -1 -12 -43 -40 -54 -37 -5 1 -29 -20 -54 -47 -25 -28 -51 -47
-57 -44 -6 3 -8 3 -4 -1 7 -9 -33 -52 -45 -48 -5 1 -29 -18 -54 -43 -26 -25
-50 -45 -55 -45 -4 0 -8 -7 -8 -15 0 -8 -9 -15 -19 -15 -10 0 -33 -16 -50 -35
-17 -19 -34 -35 -38 -35 -4 0 -19 -16 -33 -35 -14 -19 -30 -33 -36 -31 -7 3
-20 -3 -30 -12 -21 -19 -66 -21 -72 -3 -2 6 -23 11 -47 11 -24 0 -45 5 -47 11
-2 6 -18 12 -36 12 -17 1 -34 7 -36 13 -3 7 -22 11 -46 10 -24 -2 -44 3 -48
10 -9 15 -43 21 -60 10 -9 -5 -19 -1 -28 13 -12 16 -22 20 -45 16 -22 -4 -29
-2 -29 11 0 13 -8 15 -40 10 -31 -4 -43 -2 -51 12 -8 13 -21 16 -56 13 -32 -2
-43 0 -39 8 7 11 3 12 -42 15 -12 0 -26 6 -30 12 -4 6 -26 11 -49 11 -49 1
-57 -16 -18 -37 14 -7 25 -17 25 -21 0 -14 44 -51 72 -61 15 -5 30 -18 33 -29
4 -11 10 -17 14 -15 9 6 41 -30 41 -45 0 -5 4 -8 9 -5 5 4 11 2 13 -3 1 -5 10
-11 18 -13 8 -2 36 -24 62 -50 25 -27 53 -48 61 -48 8 0 34 -21 59 -47 24 -27
51 -48 59 -48 8 0 35 -22 61 -48 26 -27 51 -46 56 -43 5 3 29 -17 54 -44 26
-28 52 -50 60 -50 18 -1 49 -26 41 -33 -3 -4 1 -7 10 -7 9 0 17 -7 17 -15 0
-11 12 -15 44 -15 38 0 49 5 84 41 23 22 42 43 44 47 1 4 8 6 15 4 8 -2 30 15
50 37 20 22 40 38 44 35 5 -3 9 2 9 11 0 9 5 13 10 10 6 -4 28 11 49 32 21 21
45 39 52 41 15 4 66 47 87 75 7 9 20 17 29 17 17 0 74 56 65 65 -3 3 2 5 12 5
9 0 19 7 23 16 3 8 11 13 18 10 7 -2 28 12 46 32 19 21 41 37 49 37 8 0 35 21
59 47 24 26 47 46 51 43 10 -6 50 29 50 45 0 7 3 11 6 7 3 -3 16 5 29 19 12
13 29 24 37 24 8 0 28 16 45 35 17 19 37 35 43 35 7 0 28 14 47 30 18 17 30
30 26 30 -4 0 3 7 15 16 25 17 110 25 119 11 9 -15 48 -25 60 -15 8 6 13 3 17
-10 5 -16 14 -19 45 -16 29 3 41 0 45 -12 4 -11 15 -14 41 -11 23 3 41 0 50
-9 7 -8 32 -14 55 -14 24 0 43 -5 46 -13 3 -9 19 -13 45 -11 30 1 43 -3 52
-16 8 -14 15 -16 24 -9 9 8 21 5 42 -11 23 -16 35 -19 49 -11 15 8 24 6 38 -8
12 -11 33 -17 56 -16 22 1 39 -3 42 -11 7 -19 46 -13 46 7 0 21 -73 99 -92 99
-8 0 -40 27 -72 60 -32 33 -62 60 -66 60 -5 0 -12 9 -15 20 -3 11 -15 20 -25
20 -10 0 -57 38 -103 85 -61 61 -90 83 -101 79 -9 -4 -16 -3 -14 2 4 13 -120
134 -169 166 -24 15 -43 32 -43 38 0 6 -4 8 -10 5 -5 -3 -10 1 -10 9 0 9 -7
16 -15 16 -8 0 -15 6 -15 14 0 8 -9 18 -20 21 -11 3 -20 13 -20 21 0 22 -86
19 -99 -3z"/>
</g>
</svg>
