<?xml version="1.0" encoding="utf-8"?>
<!-- Generator: Adobe Illustrator 21.1.0, SVG Export Plug-In . SVG Version: 6.00 Build 0)  -->
<svg version="1.1" id="Logo" xmlns="http://www.w3.org/2000/svg" xmlns:xlink="http://www.w3.org/1999/xlink" x="0px" y="0px"
	 viewBox="0 0 198.4 198.4" style="enable-background:new 0 0 198.4 198.4;" xml:space="preserve">
<style type="text/css">
	.st0{fill:#FFFFFF;}
	.st1{display:none;fill:#E62D33;}
	.st2{display:none;}
	.st3{display:inline;fill:#F2DD13;}
	.st4{display:none;enable-background:new    ;}
	.st5{display:inline;fill:#E62D33;}
	.st6{fill:none;stroke:#FFFFFF;stroke-miterlimit:10;}
	.st7{fill:none;}
</style>
<g id="Hexagon">
	<path class="st0" d="M99.2,33l57.5,33.1v66.2l-57.5,33.1l-57.5-33.1V66.1L99.2,33z M99.2,27.2l-62.5,36v72l62.5,36l62.5-36v-72
		L99.2,27.2z"/>
</g>
<g id="Schriftzug">
	<rect id="Hintergrund_Groß_1_" x="78.3" y="50.2" class="st1" width="42.3" height="9.1"/>
	<g id="Potsdam_Schrift_Fett_ohne_Ok_Lab" class="st2">
		<path class="st3" d="M86.3,52.5c0.5,0.3,0.7,0.8,0.7,1.4s-0.2,1.1-0.6,1.4c-0.4,0.3-1,0.5-1.7,0.5h-0.7v1.8h-1.4V52h2
			C85.2,52,85.8,52.2,86.3,52.5z M85.2,54.5c0.2-0.1,0.3-0.4,0.3-0.7c0-0.6-0.4-0.9-1.1-0.9h-0.5v1.8h0.6
			C84.7,54.8,85,54.7,85.2,54.5z"/>
		<path class="st3" d="M91.1,53.8c0.4,0.4,0.6,1,0.6,1.7c0,0.4-0.1,0.9-0.3,1.2c-0.2,0.3-0.5,0.6-0.8,0.8c-0.3,0.2-0.8,0.3-1.2,0.3
			c-0.7,0-1.3-0.2-1.7-0.6c-0.4-0.4-0.6-1-0.6-1.7c0-0.4,0.1-0.9,0.3-1.2c0.2-0.3,0.5-0.6,0.8-0.8s0.8-0.3,1.2-0.3
			C90.2,53.2,90.7,53.4,91.1,53.8z M88.9,54.4c-0.2,0.2-0.2,0.6-0.2,1c0,0.5,0.1,0.8,0.2,1c0.2,0.2,0.3,0.3,0.6,0.3
			c0.3,0,0.5-0.1,0.6-0.3c0.2-0.2,0.2-0.6,0.2-1c0-0.5-0.1-0.8-0.2-1c-0.2-0.2-0.3-0.3-0.6-0.3C89.2,54.1,89,54.2,88.9,54.4z"/>
		<path class="st3" d="M94.9,57.6c-0.2,0.1-0.5,0.1-0.7,0.1c-1,0-1.5-0.5-1.5-1.5v-2H92v-0.9h0.7v-0.9l1.4-0.1v1.1h1.1L95,54.2H94
			v1.9c0,0.2,0,0.3,0.1,0.4c0.1,0.1,0.2,0.1,0.3,0.1c0.2,0,0.3-0.1,0.5-0.1l0.5,0.8C95.3,57.4,95.1,57.5,94.9,57.6z"/>
		<path class="st3" d="M98.5,53.3c0.3,0.1,0.6,0.2,0.8,0.4l-0.5,0.7c-0.4-0.2-0.7-0.3-1.1-0.3c-0.2,0-0.4,0-0.5,0.1S97,54.3,97,54.4
			s0,0.1,0.1,0.2c0,0.1,0.1,0.1,0.3,0.2c0.1,0.1,0.3,0.1,0.6,0.2c0.5,0.1,0.9,0.3,1.1,0.5c0.2,0.2,0.4,0.5,0.4,0.9
			c0,0.3-0.1,0.5-0.3,0.8c-0.2,0.2-0.4,0.4-0.7,0.5c-0.3,0.1-0.7,0.2-1.1,0.2c-0.4,0-0.8-0.1-1.1-0.2c-0.3-0.1-0.6-0.3-0.9-0.5
			l0.7-0.7c0.2,0.1,0.4,0.3,0.6,0.3c0.2,0.1,0.4,0.1,0.6,0.1c0.2,0,0.4,0,0.5-0.1c0.1-0.1,0.2-0.2,0.2-0.3s0-0.2-0.1-0.3
			c-0.1-0.1-0.2-0.1-0.3-0.2c-0.1-0.1-0.3-0.1-0.6-0.2c-0.5-0.1-0.8-0.3-1-0.5c-0.2-0.2-0.3-0.5-0.3-0.8c0-0.3,0.1-0.5,0.2-0.7
			c0.2-0.2,0.4-0.4,0.7-0.5c0.3-0.1,0.6-0.2,1-0.2C97.9,53.2,98.2,53.2,98.5,53.3z"/>
		<path class="st3" d="M104.3,57.5h-1.2L103,57c-0.2,0.2-0.3,0.3-0.6,0.5c-0.2,0.1-0.5,0.2-0.8,0.2c-0.6,0-1-0.2-1.3-0.6
			c-0.3-0.4-0.5-1-0.5-1.6c0-0.4,0.1-0.8,0.2-1.2c0.2-0.3,0.4-0.6,0.7-0.8c0.3-0.2,0.6-0.3,1-0.3c0.2,0,0.4,0,0.6,0.1
			c0.2,0.1,0.3,0.2,0.5,0.3v-2.1l1.4,0.1L104.3,57.5L104.3,57.5z M102.9,56.3v-1.8c-0.1-0.1-0.2-0.2-0.3-0.3
			c-0.1-0.1-0.2-0.1-0.4-0.1c-0.3,0-0.5,0.1-0.6,0.3c-0.2,0.2-0.2,0.6-0.2,1c0,0.5,0.1,0.8,0.2,1s0.3,0.3,0.6,0.3
			C102.4,56.7,102.7,56.6,102.9,56.3z"/>
		<path class="st3" d="M109.1,56.7c0.1,0.1,0.1,0.1,0.2,0.2l-0.3,0.8c-0.3,0-0.5-0.1-0.7-0.2c-0.2-0.1-0.3-0.3-0.4-0.4
			c-0.3,0.4-0.8,0.6-1.4,0.6c-0.5,0-0.8-0.1-1.1-0.4c-0.3-0.3-0.4-0.6-0.4-1c0-0.5,0.2-0.8,0.6-1.1c0.4-0.3,0.9-0.4,1.6-0.4h0.5
			v-0.2c0-0.3-0.1-0.4-0.2-0.5c-0.1-0.1-0.3-0.1-0.6-0.1c-0.2,0-0.3,0-0.6,0.1c-0.2,0-0.4,0.1-0.7,0.2l-0.3-0.8
			c0.3-0.1,0.6-0.2,0.9-0.2c0.3-0.1,0.6-0.1,0.9-0.1c0.7,0,1.2,0.1,1.5,0.4s0.5,0.6,0.5,1.1v1.6C109,56.5,109.1,56.6,109.1,56.7z
			 M107.4,56.7c0.1-0.1,0.2-0.2,0.3-0.3v-0.8h-0.3c-0.3,0-0.6,0.1-0.7,0.1c-0.2,0.1-0.2,0.3-0.2,0.5c0,0.2,0.1,0.3,0.2,0.4
			c0.1,0.1,0.2,0.1,0.4,0.1C107.1,56.8,107.2,56.7,107.4,56.7z"/>
		<path class="st3" d="M116.1,53.5c0.2,0.2,0.3,0.5,0.3,1v3.1h-1.4v-2.9c0-0.4-0.1-0.6-0.4-0.6c-0.2,0-0.3,0.1-0.4,0.1
			c-0.1,0.1-0.2,0.2-0.3,0.4v2.9h-1.4v-2.9c0-0.4-0.1-0.6-0.4-0.6c-0.2,0-0.3,0.1-0.4,0.1c-0.1,0.1-0.2,0.2-0.3,0.4v2.9h-1.3v-4.2
			h1.2l0.1,0.5c0.2-0.2,0.4-0.4,0.6-0.5c0.2-0.1,0.5-0.2,0.8-0.2c0.2,0,0.5,0.1,0.7,0.2c0.2,0.1,0.3,0.3,0.4,0.5
			c0.2-0.2,0.4-0.4,0.6-0.5c0.2-0.1,0.5-0.2,0.8-0.2C115.6,53.2,115.9,53.3,116.1,53.5z"/>
	</g>
	<g id="Potsdam_Schrift_Dünn_ohne_Ok_Lab" class="st4">
		<path class="st3" d="M84.6,52.2c0.5,0.3,0.7,0.8,0.7,1.5s-0.2,1.2-0.7,1.5c-0.5,0.3-1.1,0.5-1.9,0.5h-0.9v2.3h-0.9v-6.2h1.8
			C83.5,51.7,84.1,51.9,84.6,52.2z M83.9,54.6c0.3-0.2,0.4-0.5,0.4-1c0-0.4-0.2-0.8-0.4-1c-0.3-0.2-0.7-0.3-1.3-0.3h-0.9v2.5h0.8
			C83.2,54.9,83.6,54.8,83.9,54.6z"/>
		<path class="st3" d="M90,53.7c0.4,0.4,0.6,1,0.6,1.8c0,0.5-0.1,1-0.3,1.3c-0.2,0.4-0.4,0.7-0.8,0.9c-0.4,0.2-0.8,0.3-1.3,0.3
			c-0.7,0-1.3-0.2-1.7-0.7c-0.4-0.4-0.6-1-0.6-1.8c0-0.5,0.1-1,0.3-1.3c0.2-0.4,0.4-0.7,0.8-0.9c0.4-0.2,0.8-0.3,1.3-0.3
			C89,53.1,89.6,53.2,90,53.7z M86.9,55.5c0,1.2,0.4,1.8,1.3,1.8s1.3-0.6,1.3-1.8c0-1.2-0.4-1.8-1.3-1.8
			C87.4,53.7,86.9,54.3,86.9,55.5z"/>
		<path class="st3" d="M93.5,58c-0.4,0-0.8-0.1-1-0.3c-0.2-0.2-0.4-0.6-0.4-1v-2.9h-0.9v-0.6h0.9v-1.1l0.9-0.1v1.2h1.3l-0.1,0.6
			h-1.1v2.8c0,0.2,0,0.4,0.2,0.5c0.1,0.1,0.2,0.2,0.5,0.2c0.2,0,0.4-0.1,0.7-0.2l0.3,0.6C94.4,57.9,94,58,93.5,58z"/>
		<path class="st3" d="M98,53.2c0.3,0.1,0.6,0.2,0.8,0.4l-0.4,0.5c-0.2-0.1-0.4-0.3-0.7-0.3c-0.2-0.1-0.4-0.1-0.7-0.1
			c-0.3,0-0.5,0.1-0.7,0.2c-0.2,0.1-0.2,0.3-0.2,0.5c0,0.2,0.1,0.3,0.2,0.4c0.2,0.1,0.4,0.2,0.9,0.3c0.6,0.1,1,0.3,1.3,0.5
			c0.3,0.2,0.4,0.5,0.4,1c0,0.5-0.2,0.8-0.6,1.1c-0.4,0.2-0.9,0.4-1.5,0.4c-0.8,0-1.5-0.2-2-0.6l0.5-0.5c0.4,0.3,0.9,0.5,1.4,0.5
			c0.3,0,0.6-0.1,0.8-0.2c0.2-0.1,0.3-0.3,0.3-0.5c0-0.2,0-0.3-0.1-0.4c-0.1-0.1-0.2-0.2-0.4-0.3c-0.2-0.1-0.4-0.2-0.8-0.2
			c-0.6-0.1-0.9-0.3-1.2-0.5c-0.2-0.2-0.4-0.5-0.4-0.9c0-0.2,0.1-0.5,0.2-0.7s0.4-0.4,0.7-0.5c0.3-0.1,0.6-0.2,0.9-0.2
			C97.4,53.1,97.7,53.1,98,53.2z"/>
		<path class="st3" d="M104.2,57.9h-0.8l-0.1-0.7c-0.2,0.2-0.4,0.4-0.7,0.6c-0.3,0.1-0.6,0.2-0.9,0.2c-0.6,0-1.1-0.2-1.5-0.7
			c-0.3-0.4-0.5-1-0.5-1.8c0-0.5,0.1-1,0.2-1.3c0.2-0.4,0.4-0.7,0.7-0.9c0.3-0.2,0.7-0.3,1.1-0.3c0.6,0,1,0.2,1.4,0.6v-2.5l0.9,0.1
			L104.2,57.9L104.2,57.9z M102.8,57.1c0.2-0.1,0.4-0.3,0.6-0.5v-2.3c-0.2-0.2-0.4-0.4-0.6-0.5c-0.2-0.1-0.4-0.2-0.7-0.2
			c-0.4,0-0.7,0.2-0.9,0.5c-0.2,0.3-0.3,0.8-0.3,1.4c0,0.6,0.1,1.1,0.3,1.4c0.2,0.3,0.5,0.4,0.9,0.4
			C102.3,57.3,102.5,57.2,102.8,57.1z"/>
		<path class="st3" d="M109.7,57.2c0.1,0.1,0.2,0.2,0.3,0.2l-0.2,0.6c-0.2,0-0.5-0.1-0.7-0.2c-0.2-0.1-0.3-0.3-0.4-0.5
			c-0.4,0.5-0.9,0.7-1.5,0.7c-0.5,0-0.9-0.1-1.2-0.4c-0.3-0.3-0.4-0.6-0.4-1c0-0.5,0.2-0.9,0.6-1.2c0.4-0.3,0.9-0.4,1.7-0.4h0.8
			v-0.4c0-0.3-0.1-0.6-0.2-0.7c-0.2-0.1-0.4-0.2-0.8-0.2c-0.4,0-0.9,0.1-1.4,0.3l-0.2-0.6c0.7-0.2,1.3-0.3,1.8-0.3
			c0.6,0,1.1,0.1,1.4,0.4c0.3,0.3,0.4,0.7,0.4,1.2v2.1C109.6,57,109.6,57.1,109.7,57.2z M108.6,56.6v-1.1h-0.7c-0.9,0-1.4,0.3-1.4,1
			c0,0.3,0.1,0.5,0.2,0.6c0.2,0.1,0.4,0.2,0.7,0.2C107.9,57.4,108.3,57.1,108.6,56.6z"/>
		<path class="st3" d="M117.6,53.4c0.2,0.3,0.4,0.6,0.4,1.1v3.4h-0.9v-3.3c0-0.6-0.2-1-0.7-1c-0.2,0-0.5,0.1-0.7,0.2
			c-0.2,0.1-0.4,0.3-0.6,0.6v3.3h-0.9v-3.3c0-0.6-0.2-1-0.7-1c-0.2,0-0.5,0.1-0.7,0.2c-0.2,0.1-0.4,0.3-0.6,0.6v3.3h-0.9v-4.7h0.8
			l0.1,0.7c0.4-0.5,0.9-0.8,1.5-0.8c0.3,0,0.6,0.1,0.9,0.2c0.2,0.2,0.4,0.4,0.5,0.6c0.2-0.3,0.4-0.5,0.7-0.6
			c0.2-0.1,0.6-0.2,0.9-0.2C117,53.1,117.4,53.2,117.6,53.4z"/>
	</g>
	<g id="Potsdam_für_OK_Lab">
		<path class="st0" d="M85.7,52.2c0.4,0.3,0.6,0.8,0.6,1.4c0,0.7-0.2,1.2-0.7,1.5c-0.4,0.3-1,0.5-1.7,0.5h-0.8v2.2h-0.9v-6.1h1.6
			C84.7,51.7,85.3,51.9,85.7,52.2z M85,54.7c0.3-0.2,0.4-0.5,0.4-1c0-0.4-0.1-0.8-0.4-1c-0.3-0.2-0.6-0.3-1.1-0.3h-0.8v2.5h0.7
			C84.4,55,84.8,54.9,85,54.7z"/>
		<path class="st0" d="M90.5,53.7c0.4,0.4,0.6,1,0.6,1.8c0,0.5-0.1,0.9-0.3,1.3c-0.2,0.4-0.4,0.7-0.7,0.9C89.8,57.9,89.4,58,89,58
			c-0.7,0-1.2-0.2-1.6-0.7c-0.4-0.4-0.6-1-0.6-1.8c0-0.5,0.1-0.9,0.3-1.3s0.4-0.7,0.7-0.9c0.3-0.2,0.7-0.3,1.1-0.3
			C89.7,53.1,90.2,53.3,90.5,53.7z M87.8,55.5c0,1.2,0.4,1.8,1.2,1.8c0.8,0,1.2-0.6,1.2-1.8c0-1.2-0.4-1.8-1.2-1.8
			C88.2,53.7,87.8,54.3,87.8,55.5z"/>
		<path class="st0" d="M93.8,58c-0.4,0-0.7-0.1-0.9-0.3c-0.2-0.2-0.3-0.6-0.3-1v-2.8h-0.8v-0.6h0.8v-1.1l0.8-0.1v1.2h1.1l-0.1,0.6
			h-1v2.8c0,0.2,0,0.4,0.1,0.5c0.1,0.1,0.2,0.2,0.4,0.2c0.2,0,0.4-0.1,0.6-0.2l0.3,0.6C94.5,57.9,94.2,58,93.8,58z"/>
		<path class="st0" d="M97.8,53.2c0.3,0.1,0.5,0.2,0.7,0.4l-0.4,0.5c-0.2-0.1-0.4-0.3-0.6-0.3c-0.2-0.1-0.4-0.1-0.6-0.1
			c-0.3,0-0.5,0.1-0.6,0.2c-0.2,0.1-0.2,0.3-0.2,0.5c0,0.2,0.1,0.3,0.2,0.5c0.1,0.1,0.4,0.2,0.8,0.3c0.5,0.1,0.9,0.3,1.2,0.5
			c0.3,0.2,0.4,0.5,0.4,0.9c0,0.5-0.2,0.8-0.5,1.1c-0.4,0.2-0.8,0.4-1.3,0.4c-0.7,0-1.3-0.2-1.8-0.6l0.5-0.5
			c0.4,0.3,0.8,0.5,1.3,0.5c0.3,0,0.6-0.1,0.7-0.2c0.2-0.1,0.3-0.3,0.3-0.5c0-0.2,0-0.3-0.1-0.4c-0.1-0.1-0.2-0.2-0.3-0.3
			s-0.4-0.2-0.7-0.2c-0.5-0.1-0.9-0.3-1.1-0.5c-0.2-0.2-0.3-0.5-0.3-0.9c0-0.2,0.1-0.5,0.2-0.7c0.1-0.2,0.4-0.4,0.6-0.5
			c0.3-0.1,0.6-0.2,0.9-0.2C97.3,53.1,97.6,53.1,97.8,53.2z"/>
		<path class="st0" d="M103.5,57.9h-0.7l-0.1-0.7c-0.2,0.2-0.4,0.4-0.6,0.6c-0.2,0.1-0.5,0.2-0.8,0.2c-0.6,0-1-0.2-1.3-0.7
			c-0.3-0.4-0.5-1-0.5-1.8c0-0.5,0.1-0.9,0.2-1.3c0.1-0.4,0.4-0.7,0.6-0.9c0.3-0.2,0.6-0.3,1-0.3c0.5,0,0.9,0.2,1.3,0.6v-2.5
			l0.8,0.1V57.9z M102.1,57.2c0.2-0.1,0.4-0.3,0.5-0.5v-2.3c-0.2-0.2-0.3-0.4-0.5-0.5c-0.2-0.1-0.4-0.2-0.6-0.2
			c-0.4,0-0.6,0.2-0.9,0.5c-0.2,0.3-0.3,0.8-0.3,1.4c0,0.6,0.1,1.1,0.3,1.4c0.2,0.3,0.5,0.5,0.8,0.5C101.7,57.3,102,57.3,102.1,57.2
			z"/>
		<path class="st0" d="M108.4,57.2c0.1,0.1,0.2,0.2,0.3,0.2l-0.2,0.6c-0.2,0-0.4-0.1-0.6-0.2c-0.1-0.1-0.3-0.3-0.3-0.5
			c-0.3,0.5-0.8,0.7-1.4,0.7c-0.5,0-0.8-0.1-1.1-0.4c-0.3-0.3-0.4-0.6-0.4-1c0-0.5,0.2-0.9,0.5-1.2c0.4-0.3,0.9-0.4,1.5-0.4h0.7
			v-0.4c0-0.3-0.1-0.6-0.2-0.7c-0.2-0.1-0.4-0.2-0.7-0.2s-0.8,0.1-1.3,0.3l-0.2-0.6c0.6-0.2,1.1-0.3,1.6-0.3c0.6,0,1,0.1,1.3,0.4
			c0.3,0.3,0.4,0.7,0.4,1.2v2.1C108.3,57,108.4,57.1,108.4,57.2z M107.5,56.6v-1.1h-0.6c-0.9,0-1.3,0.3-1.3,1c0,0.3,0.1,0.5,0.2,0.6
			c0.1,0.1,0.3,0.2,0.6,0.2C106.9,57.4,107.2,57.1,107.5,56.6z"/>
		<path class="st0" d="M115.7,53.5c0.2,0.3,0.4,0.6,0.4,1.1v3.4h-0.8v-3.3c0-0.6-0.2-0.9-0.7-0.9c-0.2,0-0.4,0.1-0.6,0.2
			c-0.2,0.1-0.3,0.3-0.5,0.6v3.3h-0.8v-3.3c0-0.6-0.2-0.9-0.7-0.9c-0.2,0-0.4,0.1-0.6,0.2c-0.2,0.1-0.3,0.3-0.5,0.6v3.3H110v-4.7
			h0.7l0.1,0.7c0.4-0.5,0.8-0.8,1.4-0.8c0.3,0,0.5,0.1,0.8,0.2c0.2,0.2,0.4,0.4,0.4,0.6c0.2-0.3,0.4-0.5,0.6-0.6
			c0.2-0.1,0.5-0.2,0.8-0.2C115.1,53.1,115.4,53.2,115.7,53.5z"/>
	</g>
	<g id="OK_Lab_dünn" class="st2">
		<path class="st5" d="M91.5,42.6c0.3,0.2,0.6,0.5,0.8,1c0.2,0.4,0.3,0.9,0.3,1.6c0,0.6-0.1,1.1-0.3,1.5c-0.2,0.4-0.5,0.8-0.8,1
			c-0.3,0.2-0.8,0.3-1.2,0.3c-0.5,0-0.9-0.1-1.2-0.3c-0.3-0.2-0.6-0.5-0.8-1c-0.2-0.4-0.3-0.9-0.3-1.5c0-0.6,0.1-1.1,0.3-1.5
			c0.2-0.4,0.5-0.8,0.8-1c0.4-0.2,0.8-0.3,1.2-0.3C90.7,42.2,91.1,42.3,91.5,42.6z M89.2,43.4c-0.3,0.4-0.4,0.9-0.4,1.7
			c0,0.8,0.1,1.3,0.4,1.6c0.3,0.4,0.6,0.5,1.1,0.5c1,0,1.5-0.7,1.5-2.2s-0.5-2.2-1.5-2.2C89.8,42.8,89.5,43,89.2,43.4z"/>
		<path class="st5" d="M93.3,47.8v-5.4h0.8v5.4H93.3z M97.2,47.8h-0.9l-2.1-2.9l2.1-2.5h0.9L95,44.8L97.2,47.8z"/>
		<path class="st5" d="M102.3,47.1l-0.1,0.7h-2.9v-5.4h0.8v4.8H102.3z"/>
		<path class="st5" d="M105.7,47.2c0.1,0.1,0.1,0.1,0.3,0.2l-0.2,0.5c-0.2,0-0.4-0.1-0.5-0.2c-0.1-0.1-0.2-0.2-0.3-0.4
			c-0.3,0.4-0.7,0.6-1.3,0.6c-0.4,0-0.7-0.1-1-0.4c-0.2-0.2-0.4-0.5-0.4-0.9c0-0.4,0.2-0.8,0.5-1c0.3-0.2,0.8-0.4,1.4-0.4h0.6v-0.3
			c0-0.3-0.1-0.5-0.2-0.6c-0.1-0.1-0.4-0.2-0.7-0.2s-0.7,0.1-1.1,0.2l-0.2-0.5c0.5-0.2,1-0.3,1.5-0.3c0.5,0,0.9,0.1,1.1,0.4
			c0.2,0.2,0.4,0.6,0.4,1v1.9C105.6,47,105.7,47.1,105.7,47.2z M104.9,46.7v-1h-0.6c-0.8,0-1.2,0.3-1.2,0.9c0,0.3,0.1,0.4,0.2,0.6
			c0.1,0.1,0.3,0.2,0.5,0.2C104.3,47.3,104.6,47.1,104.9,46.7z"/>
		<path class="st5" d="M109.8,44.1c0.3,0.4,0.4,0.9,0.4,1.6c0,0.4-0.1,0.8-0.2,1.2c-0.1,0.3-0.3,0.6-0.6,0.8
			c-0.3,0.2-0.5,0.3-0.9,0.3c-0.4,0-0.8-0.2-1.1-0.6l-0.1,0.5h-0.6v-5.8l0.7-0.1v2.3c0.3-0.4,0.7-0.6,1.2-0.6
			C109.1,43.5,109.5,43.7,109.8,44.1z M109.1,46.9c0.2-0.3,0.3-0.7,0.3-1.2c0-0.6-0.1-1-0.3-1.2s-0.4-0.4-0.7-0.4
			c-0.4,0-0.7,0.2-1,0.7v2c0.1,0.2,0.2,0.3,0.4,0.4c0.2,0.1,0.3,0.2,0.5,0.2C108.7,47.3,108.9,47.1,109.1,46.9z"/>
	</g>
	<g id="OK_Lab_dick">
		<path class="st0" d="M91.5,42.6c0.4,0.2,0.6,0.6,0.8,1c0.2,0.4,0.3,1,0.3,1.6c0,0.6-0.1,1.1-0.3,1.6c-0.2,0.4-0.5,0.8-0.8,1
			c-0.4,0.2-0.8,0.3-1.3,0.3c-0.5,0-0.9-0.1-1.3-0.3c-0.4-0.2-0.6-0.6-0.8-1c-0.2-0.4-0.3-1-0.3-1.6c0-0.6,0.1-1.1,0.3-1.5
			c0.2-0.4,0.5-0.8,0.8-1c0.4-0.2,0.8-0.3,1.3-0.3C90.7,42.2,91.1,42.3,91.5,42.6z M89.2,43.5c-0.2,0.3-0.3,0.9-0.3,1.6
			c0,1.4,0.4,2,1.3,2c0.4,0,0.8-0.2,1-0.5c0.2-0.3,0.3-0.9,0.3-1.6c0-0.7-0.1-1.2-0.3-1.6c-0.2-0.3-0.5-0.5-1-0.5
			C89.8,43,89.5,43.2,89.2,43.5z"/>
		<path class="st0" d="M93.1,47.8v-5.5h1.1v5.5H93.1z M97.4,47.8h-1.3l-1.9-2.9l1.9-2.5h1.1l-1.9,2.5L97.4,47.8z"/>
		<path class="st0" d="M102.4,46.9l-0.1,0.9h-3.1v-5.5h1.1v4.6H102.4z"/>
		<path class="st0" d="M105.9,47.1c0.1,0.1,0.1,0.1,0.2,0.2l-0.2,0.7c-0.2,0-0.4-0.1-0.6-0.2c-0.2-0.1-0.3-0.2-0.3-0.4
			c-0.1,0.2-0.3,0.4-0.5,0.5c-0.2,0.1-0.5,0.2-0.7,0.2c-0.4,0-0.8-0.1-1-0.4c-0.2-0.2-0.4-0.6-0.4-0.9c0-0.5,0.2-0.8,0.5-1.1
			c0.3-0.3,0.8-0.4,1.4-0.4h0.5V45c0-0.3-0.1-0.5-0.2-0.6c-0.1-0.1-0.3-0.2-0.6-0.2c-0.3,0-0.7,0.1-1.1,0.2l-0.2-0.7
			c0.5-0.2,1-0.3,1.5-0.3c1.1,0,1.6,0.5,1.6,1.5v1.7C105.8,46.9,105.9,47,105.9,47.1z M104.8,46.7v-0.9h-0.4c-0.7,0-1,0.2-1,0.7
			c0,0.2,0.1,0.4,0.2,0.5c0.1,0.1,0.3,0.2,0.4,0.2C104.4,47.2,104.6,47,104.8,46.7z"/>
		<path class="st0" d="M109.9,44.1c0.3,0.4,0.4,0.9,0.4,1.6c0,0.4-0.1,0.8-0.2,1.2c-0.1,0.3-0.3,0.6-0.6,0.8
			c-0.3,0.2-0.5,0.3-0.9,0.3c-0.2,0-0.4,0-0.6-0.1c-0.2-0.1-0.4-0.2-0.5-0.4l-0.1,0.4h-0.9V42l1-0.1v2.2c0.1-0.2,0.3-0.3,0.5-0.4
			c0.2-0.1,0.4-0.2,0.6-0.2C109.3,43.5,109.7,43.7,109.9,44.1z M109.1,46.8c0.2-0.2,0.2-0.6,0.2-1.1c0-0.5-0.1-0.9-0.2-1.1
			s-0.3-0.3-0.6-0.3c-0.3,0-0.6,0.2-0.8,0.6v1.8c0.1,0.2,0.2,0.3,0.4,0.4c0.1,0.1,0.3,0.1,0.4,0.1C108.7,47.2,108.9,47,109.1,46.8z"
			/>
	</g>
</g>
<g id="Mariaroboter">
	<g>
		<g id="XMLID_1_">
			<g>
				<path class="st0" d="M109.4,141.6c-0.8,0.6-4.3,1.4-10.3,1.4c-6,0-9.5-0.8-10.3-1.4c4-1.4,7.5-1.7,10.3-1.5
					C101.9,139.9,105.4,140.2,109.4,141.6z"/>
				<path class="st0" d="M103.2,132.2c0,0.3-0.9,0.6-1.7,0.6c-0.2,0-0.6,0-0.9-0.3c-0.2-0.2-0.3-0.5-0.2-0.6
					c0.1-0.4,1.1-0.7,1.4-0.7C102.1,131.2,103.2,131.9,103.2,132.2z"/>
				<path class="st0" d="M97.7,132c0,0.1,0,0.4-0.2,0.6c-0.3,0.2-0.8,0.3-0.9,0.3c-0.7,0-1.7-0.3-1.7-0.6c0-0.3,1.1-1,1.4-1
					C96.6,131.2,97.6,131.6,97.7,132z"/>
				<circle class="st0" cx="112.1" cy="118.1" r="0.5"/>
				<circle class="st0" cx="86.1" cy="118.1" r="0.5"/>
				<path class="st0" d="M118.7,88.9l3.6-3.7l-1-1l-3.6,3.6L118.7,88.9z M89.8,82.4C89.8,82.4,89.8,82.4,89.8,82.4
					c-3.2,1.1-6,2.7-8.5,4.8l-2.1,2c0,0-2.7,3.6-4.5,6.9l-4.7-1.3l-0.4,1.4l4.6,1.3l0,0c0,0-1.2,6.2-1.3,8.6
					c-0.3,5-0.4,7.5-0.9,10.1c0,0-0.2,1-0.8,1.8c-0.2,0.4-0.6,0.7-0.9,0.9c-0.3,0.1-0.5,0.2-0.7,0.3c-1.6,0.8-2.3,1.5-2.3,2.2
					l-4.4-0.2c-0.6-1.8-1.6-3.5-3.5-4.8l6-0.9c0.4-0.2,0.9-0.2,0.8-3.3l-0.1-2l0.1-8.5C66.4,92.8,75.9,70,99,70
					c23.1,0,32.6,22.7,32.7,31.8l0.1,8.5l-0.1,2c0,3.1,0.4,3.1,0.8,3.3l6,0.9c-1.9,1.3-3,3-3.5,4.8l-4.4,0.2c0-0.8-0.8-1.5-2.3-2.2
					c-0.2-0.1-0.5-0.2-0.7-0.3c-0.4-0.2-0.7-0.5-0.9-0.9c-0.5-0.8-0.8-1.8-0.8-1.8c-0.5-2.5-0.6-5-0.9-10.1
					c-0.2-2.4-1.3-8.6-1.3-8.6l0,0l4.6-1.3l-0.4-1.4l-4.7,1.3c-1.7-3.3-4.5-6.9-4.5-6.9l-2.1-2c-2.5-2.1-5.3-3.8-8.5-4.8l0,0
					c-3.3-3.3-5.1-4.1-9.3-4.2C94.9,78.3,93.1,79.1,89.8,82.4z M80.6,87.9L77,84.3l-1,1l3.6,3.7L80.6,87.9z"/>
			</g>
			<g>
				<path class="st6" d="M128.6,136.1c0.1,0,0.1,0.1,0.2,0.1c0.4,0.2-0.8,2.9-0.8,2.9c-1-0.5-1.9-0.7-4.6-0.5
					c-1,0.2-1.5,1.6-1.6,2.1c0.1-0.7,0.7-3.8,1.1-6.1c0.3-1.5,0.5-2.7,0.5-2.7c0.5-2.7,0.9-10.5,1.5-12.8c0.2-0.7,1.1-1.4,1.9-1.1"
					/>
				<path class="st6" d="M128.9,128l0.1-0.2c0.4-1.1,1.1-3.2,1.8-6.2"/>
				<path class="st6" d="M138.7,114.1c0,0,0-0.2-0.1,2.4c-1.9,1.3-3,3-3.5,4.8l-4.4,0.2"/>
				<path class="st6" d="M128.9,128c-0.2-0.1-0.4-0.2-0.7-0.2c-0.8,0-1.4,0.6-1.4,1.4c0,0.7,0.5,1.2,1.1,1.4l-1.7,3.2
					c-0.5,1.1,0.6,1.4,2.5,2.3"/>
				<path class="st6" d="M127.9,130.6c0.1,0,0.2,0,0.3,0c0.8,0,1.4-0.6,1.4-1.4c0-0.5-0.3-1-0.7-1.2"/>
				<line class="st6" x1="101.6" y1="130.3" x2="104.7" y2="131.9"/>
				<path class="st6" d="M108.4,82.4C108.4,82.4,108.4,82.4,108.4,82.4c-4,0-6.9,1.7-6.9,7.5l0.3,14.3l-0.3,11.5l0,0v14.7"/>
				<path class="st6" d="M101.6,115.7l3.1,16.2c0.1,1-0.4,1.3-1.2,1.3"/>
				<path class="st6" d="M120.3,119l-1.4,0.8l-1.8,0.7c-1.4,0.6-3.2,0.7-5.4,0.6c-1.9-0.1-3.9-0.6-5.9-1.6c-0.9-0.5-1.5-1.1-2.1-1.7
					"/>
				<path class="st6" d="M122.2,109.9c-0.6-1.5-4.5-2.4-6.2-2.4c-4.3-0.1-8.3,1.6-12,5"/>
				<path class="st6" d="M119,93.1l1.7,3.4c0.3,1.2,0.4,3.2,0.3,6.7c0.6,3.4,0.9,4.9,1.2,6.6c0.7,1.1,0.6,2.2,0.4,3.3
					c-0.7,2.7-1.2,4.7-1.1,5.4v1.1c-0.2-0.4-0.5-0.7-0.8-1c-1.2-1.4-2.9-2.6-5.2-3.5c-1.2-0.5-3.2-0.7-5.7-0.5
					c-3.4,0.9-4.8,2-6.1,3.1c0.8,3.6,3.7,6.9,12.5,5.7"/>
				<path class="st6" d="M109.6,141.2c0.2,0.1,0.4,0.2,0.7,0.3c-2.5,2.2-6.2,3.3-11.1,3.4c-4.9-0.1-8.5-1.2-11.1-3.4
					c0.2-0.1,0.4-0.2,0.7-0.3c2.5-1.2,4.6-2.2,6.6-2.6c1.4-0.2,2.7,0.4,3.9,0.3c1.2,0,2.5-0.5,3.9-0.3
					C104.9,139,107,140.1,109.6,141.2z"/>
				<path class="st6" d="M123.4,96.2c-1.7-3.3-4.5-6.9-4.5-6.9l-2.1-2c-2.5-2.1-5.3-3.8-8.5-4.8"/>
				<path class="st6" d="M130.8,121.5c0-0.8-0.8-1.5-2.3-2.2c-0.5-0.2-1.4-0.3-1.6,0.6c-0.2,1.1-2.2,9.9-3,13.4
					c-0.2,0.9-0.3,1.5-0.3,1.5"/>
				<path class="st6" d="M128.4,119.3c-0.2-0.1-0.5-0.2-0.7-0.3c-0.4-0.2-0.7-0.5-0.9-0.9"/>
				<path class="st6" d="M126.8,118.1c-0.5-0.8-0.8-1.8-0.8-1.8c-0.5-2.5-0.6-5-0.9-10.1c-0.2-2.4-1.3-8.6-1.3-8.6"/>
				<polyline class="st7" points="123.8,97.6 123.9,97.6 128.5,96.3 128.1,94.9 123.4,96.2 				"/>
				<line class="st6" x1="123.8" y1="97.6" x2="123.4" y2="96.2"/>
				<polygon class="st7" points="122.2,85.3 121.2,84.2 117.6,87.9 118.7,88.9 				"/>
				<line class="st6" x1="128.6" y1="136.1" x2="128.8" y2="136.2"/>
				<path class="st6" d="M128.6,136.1l-3.7-1.8c0,0-0.4-0.2-0.6-0.9"/>
				<circle class="st6" cx="112.1" cy="118.1" r="0.5"/>
				<path class="st6" d="M71.4,118.1c0.8-0.3,1.7,0.4,1.9,1.1c0.6,2.3,0.9,10.1,1.5,12.8c0,0,0.2,1.2,0.5,2.7c0.4,2.3,1,5.4,1.1,6.1
					c-0.1-0.5-0.6-2-1.6-2.1c-2.6-0.2-3.6,0-4.6,0.5c0,0-1.2-2.7-0.8-2.9c0.1,0,0.1-0.1,0.2-0.1"/>
				<path class="st6" d="M76.4,140.8c0,0,2.5,15.3,18.1,18.5h4.7h4.7c15.5-3.2,18.1-18.5,18.1-18.5"/>
				<path class="st6" d="M67.4,121.5c0.8,3,1.4,5.1,1.8,6.2l0.1,0.2"/>
				<path class="st6" d="M67.4,121.5l-4.4-0.2c-0.6-1.8-1.6-3.5-3.5-4.8c-0.1-2.5-0.1-2.4-0.1-2.4"/>
				<path class="st6" d="M59.4,114.1c0,0,4.8-0.6,4.7-1.7c0,0-0.1-4.7-0.1-6.2c0-14.9,7.1-30.2,24-36.8l1.7-1
					c0.3-0.2-0.1-2.2,0.4-3.6c0.8-2,1.7-3.5,2.8-3.6l6.1-0.1l6.1,0.1c1.2,0.1,2.1,1.5,2.8,3.6c0.5,1.4,0.2,3.5,0.4,3.6l1.7,1
					c17,6.6,24,21.9,24,36.8c0,1.5-0.1,6.2-0.1,6.2c-0.1,1.1,4.7,1.7,4.7,1.7"/>
				<path class="st6" d="M69.6,136.1c1.8-1,3-1.3,2.5-2.3l-1.7-3.2c0.6-0.2,1.1-0.7,1.1-1.4c0-0.8-0.6-1.4-1.4-1.4
					c-0.2,0-0.5,0.1-0.7,0.2"/>
				<path class="st6" d="M69.3,128c-0.4,0.2-0.7,0.7-0.7,1.2c0,0.8,0.6,1.4,1.4,1.4c0.1,0,0.2,0,0.3,0"/>
				<path class="st6" d="M88,149.7c0.8-0.7,2.5-1.3,3.9-1.4c1.8-0.2,5.4,0.4,7.2,0.4s5.3-0.6,7.2-0.4c1.4,0.1,3.1,0.7,3.9,1.4"/>
				<polyline class="st6" points="96.6,130.3 99.1,131.3 101.6,130.3 				"/>
				<line class="st6" x1="93.5" y1="131.9" x2="96.6" y2="130.3"/>
				<path class="st6" d="M96.6,130.3v-14.7l0,0l-0.3-11.5l0.3-14.3c0-5.7-2.9-7.4-6.9-7.5l0,0"/>
				<path class="st6" d="M89.8,82.4c3.3-3.3,5.1-4.1,9.3-4.2c4.2,0.1,6,0.9,9.3,4.2l0,0"/>
				<path class="st6" d="M94.7,133.1c-0.8,0-1.4-0.3-1.2-1.3l3.1-16.2"/>
				<path class="st6" d="M94.4,117.9c-0.6,0.6-1.2,1.2-2.1,1.7c-1.9,1-3.9,1.5-5.9,1.6c-2.2,0.1-4.1,0-5.4-0.6l-1.8-0.7l-1.4-0.8"/>
				<path class="st6" d="M94.2,112.6c-3.8-3.4-7.8-5.1-12-5c-1.7,0-5.6,0.9-6.2,2.4"/>
				<path class="st6" d="M81.9,123.5c8.8,1.2,11.7-2.1,12.5-5.7c-1.3-1.1-2.7-2.2-6.1-3.1c-2.5-0.2-4.5-0.1-5.7,0.5
					c-2.3,0.9-4,2-5.2,3.5c-0.3,0.3-0.5,0.7-0.8,1v-1.1c0.1-0.7-0.4-2.7-1.1-5.4c-0.2-1.1-0.3-2.1,0.4-3.3c0.3-1.7,0.6-3.2,1.2-6.6
					c0-3.5,0-5.5,0.3-6.7l1.7-3.4"/>
				<path class="st6" d="M59.5,116.5l6-0.9c0.4-0.2,0.9-0.2,0.8-3.3l-0.1-2l0.1-8.5C66.5,92.8,76,70,99.1,70
					c23.1,0,32.6,22.7,32.7,31.8l0.1,8.5l-0.1,2c0,3.1,0.4,3.1,0.8,3.3l6,0.9"/>
				<path class="st6" d="M89.8,82.4c-3.2,1-6,2.7-8.5,4.8l-2.1,2c0,0-2.7,3.6-4.5,6.9"/>
				<path class="st6" d="M74.7,134.8c0,0-0.1-0.6-0.3-1.5c-0.8-3.5-2.8-12.4-3-13.5c-0.2-0.9-1.1-0.8-1.6-0.6
					c-1.6,0.8-2.3,1.5-2.3,2.2"/>
				<path class="st6" d="M71.4,118.1c-0.2,0.4-0.6,0.7-0.9,0.9c-0.3,0.1-0.5,0.2-0.7,0.3"/>
				<path class="st6" d="M74.3,97.6c0,0-1.2,6.2-1.3,8.6c-0.3,5-0.4,7.5-0.9,10.1c0,0-0.2,1-0.8,1.8"/>
				<polyline class="st7" points="74.7,96.2 70.1,94.9 69.7,96.3 74.3,97.6 74.3,97.6 				"/>
				<line class="st6" x1="74.7" y1="96.2" x2="74.3" y2="97.6"/>
				<polygon class="st7" points="79.5,88.9 80.6,87.9 77,84.2 76,85.3 				"/>
				<line class="st6" x1="69.4" y1="136.2" x2="69.6" y2="136.1"/>
				<path class="st6" d="M73.9,133.4c-0.2,0.7-0.6,0.9-0.6,0.9l-3.7,1.8"/>
				<circle class="st6" cx="86.1" cy="118.1" r="0.5"/>
			</g>
		</g>
	</g>
	<path class="st6" d="M134.1,109.2l6.4-0.2c0.4,0,0.7-0.3,0.7-0.7l-0.4-9.3c0-0.4-0.3-0.7-0.7-0.7l-6.6,0.2"/>
	<path class="st6" d="M141,105.9l0.9,0c0.5-0.5,0.7-0.8,1.2-1.3c0-0.7,0-1.3-0.1-2c-0.5-0.5-0.8-0.8-1.3-1.2h-0.9"/>
	<path class="st6" d="M143.1,103.6c0,0,5.4-0.4,7.2,2.3c1.9,3,2,23.5,9.9,19.9"/>
	<path class="st6" d="M64.1,109.2l-6.5-0.2c-0.4,0-0.7-0.3-0.7-0.7l0.4-9.3c0-0.4,0.3-0.7,0.7-0.7l6.6,0.2"/>
	<path class="st6" d="M57.1,105.9l-0.9,0c-0.5-0.5-0.7-0.8-1.2-1.3c0-0.7,0-1.3,0.1-2c0.5-0.5,0.8-0.8,1.3-1.2h0.9"/>
	<path class="st6" d="M55,103.6c0,0-5.4-0.4-7.2,2.3c-1.9,3-2,23.5-9.9,19.9"/>
	<path class="st6" d="M78.2,146.2c-0.2,1-0.8,10.9-1,11.9"/>
	<path class="st6" d="M120,146.2c0.2,1,0.8,10.9,1,11.9"/>
</g>
</svg>
